<svg width="244" height="74" viewBox="0 0 244 74" fill="none" xmlns="http://www.w3.org/2000/svg">
<g filter="url(#filter0_d)">
<mask id="path-1-inside-1" fill="white">
<path fill-rule="evenodd" clip-rule="evenodd" d="M105.488 22.7864C103.168 22.7864 100.414 23.2783 97.4059 26.7662V17.0051C97.4059 14.5392 95.4046 12.5333 92.9443 12.5333C90.484 12.5333 88.4827 14.5392 88.4827 17.0051V48.8375C88.4827 51.3033 90.484 53.3092 92.9443 53.3092C95.4046 53.3092 97.4059 51.3033 97.4059 48.8375V36.4827C97.4059 32.9309 99.0886 30.9697 102.154 30.9697C105.156 30.9697 106.737 32.8734 106.737 36.4827V48.8375C106.737 51.3033 108.738 53.3092 111.199 53.3092C113.659 53.3092 115.66 51.3033 115.66 48.8375V33.8891C115.654 26.9387 111.855 22.7864 105.488 22.7864ZM131.111 23.0037C127.478 23.0037 124.597 23.4764 121.773 24.5369C120.307 25.0863 119.326 26.5044 119.326 28.0632C119.326 30.1457 120.977 31.7747 123.086 31.7747C123.52 31.7747 123.883 31.7108 124.38 31.5447C126.095 31.0081 127.905 30.7526 129.925 30.7526C134.718 30.7526 135.738 33.4037 135.751 35.646C134.087 35.103 131.99 34.6047 129.065 34.6047C121.442 34.6047 117.069 38.099 117.069 44.1998V44.3084C117.069 49.8214 121.2 53.5266 127.344 53.5266C130.805 53.5266 133.578 52.4725 135.789 50.3133C136.165 51.8912 137.676 53.3157 139.996 53.3157C142.437 53.3157 144.349 51.4248 144.349 49.0101V35.8312C144.349 31.6853 143.266 28.4912 141.118 26.3447C138.9 24.128 135.534 23.0037 131.111 23.0037ZM129.817 47.1192C127.287 47.1192 125.719 45.9182 125.719 43.9826V43.874C125.719 41.5678 127.644 40.2519 131.003 40.2519C132.723 40.2519 134.438 40.5904 135.859 41.2037V42.4239C135.859 45.1836 133.374 47.1192 129.817 47.1192ZM156.306 26.8433C158.613 24.1155 161.456 22.7867 164.974 22.7867C171.686 22.7867 178.474 28.0442 178.474 38.0993V38.2079C178.474 42.8393 177.053 46.7617 174.369 49.5597C171.915 52.1214 168.582 53.5268 164.974 53.5268C161.501 53.5268 158.741 52.3386 156.351 49.8089V57.4747C156.351 59.9406 154.349 61.9464 151.889 61.9464C149.429 61.9464 147.427 59.9406 147.427 57.4747V27.4757C147.427 25.0098 149.429 23.0039 151.889 23.0039C154.139 23.0039 156 24.6777 156.306 26.8433ZM169.557 38.0993C169.557 33.7617 166.683 30.4845 162.871 30.4845C159.034 30.4845 156.242 33.685 156.242 38.0993V38.2079C156.242 42.6221 159.028 45.8226 162.871 45.8226C166.746 45.8226 169.557 42.6221 169.557 38.2079V38.0993ZM198.08 22.7867C194.561 22.7867 191.719 24.1155 189.411 26.8433C189.105 24.6777 187.244 23.0039 184.994 23.0039C182.534 23.0039 180.533 25.0098 180.533 27.4757V57.4747C180.533 59.9406 182.534 61.9464 184.994 61.9464C187.455 61.9464 189.456 59.9406 189.456 57.4747V49.8089C191.846 52.3386 194.606 53.5268 198.08 53.5268C201.687 53.5268 205.021 52.1214 207.475 49.5597C210.158 46.7617 211.579 42.8393 211.579 38.2079V38.0993C211.579 28.0442 204.791 22.7867 198.08 22.7867ZM195.976 30.4845C199.788 30.4845 202.662 33.7617 202.662 38.0993V38.2079C202.662 42.6221 199.852 45.8226 195.976 45.8226C192.133 45.8226 189.348 42.6221 189.348 38.2079V38.0993C189.348 33.685 192.139 30.4845 195.976 30.4845ZM231.485 26.3768C232.313 24.1664 233.792 23.0038 235.761 23.0038C238.139 23.0038 240.006 24.8244 240 27.137C240 27.8077 239.783 28.7787 239.592 29.2259L229.528 53.45C226.998 59.589 224.359 61.7674 219.445 61.7674C217.711 61.7674 216.379 61.5374 214.849 60.9881C213.797 60.6048 212.026 59.6082 212.026 57.2446C212.026 54.9193 213.855 53.533 215.62 53.533C216.321 53.533 216.742 53.6544 217.08 53.7694C217.775 53.9866 218.157 54.076 218.686 54.076C220.025 54.076 220.586 53.8588 221.261 52.562L221.465 52.0765L211.675 29.3409C211.452 28.7787 211.216 27.9099 211.216 27.303C211.216 24.85 213.109 22.9974 215.62 22.9974C217.692 22.9974 219.094 24.0834 219.897 26.3193L225.793 42.2067L231.485 26.3768Z"/>
</mask>
<path fill-rule="evenodd" clip-rule="evenodd" d="M105.488 22.7864C103.168 22.7864 100.414 23.2783 97.4059 26.7662V17.0051C97.4059 14.5392 95.4046 12.5333 92.9443 12.5333C90.484 12.5333 88.4827 14.5392 88.4827 17.0051V48.8375C88.4827 51.3033 90.484 53.3092 92.9443 53.3092C95.4046 53.3092 97.4059 51.3033 97.4059 48.8375V36.4827C97.4059 32.9309 99.0886 30.9697 102.154 30.9697C105.156 30.9697 106.737 32.8734 106.737 36.4827V48.8375C106.737 51.3033 108.738 53.3092 111.199 53.3092C113.659 53.3092 115.66 51.3033 115.66 48.8375V33.8891C115.654 26.9387 111.855 22.7864 105.488 22.7864ZM131.111 23.0037C127.478 23.0037 124.597 23.4764 121.773 24.5369C120.307 25.0863 119.326 26.5044 119.326 28.0632C119.326 30.1457 120.977 31.7747 123.086 31.7747C123.52 31.7747 123.883 31.7108 124.38 31.5447C126.095 31.0081 127.905 30.7526 129.925 30.7526C134.718 30.7526 135.738 33.4037 135.751 35.646C134.087 35.103 131.99 34.6047 129.065 34.6047C121.442 34.6047 117.069 38.099 117.069 44.1998V44.3084C117.069 49.8214 121.2 53.5266 127.344 53.5266C130.805 53.5266 133.578 52.4725 135.789 50.3133C136.165 51.8912 137.676 53.3157 139.996 53.3157C142.437 53.3157 144.349 51.4248 144.349 49.0101V35.8312C144.349 31.6853 143.266 28.4912 141.118 26.3447C138.9 24.128 135.534 23.0037 131.111 23.0037ZM129.817 47.1192C127.287 47.1192 125.719 45.9182 125.719 43.9826V43.874C125.719 41.5678 127.644 40.2519 131.003 40.2519C132.723 40.2519 134.438 40.5904 135.859 41.2037V42.4239C135.859 45.1836 133.374 47.1192 129.817 47.1192ZM156.306 26.8433C158.613 24.1155 161.456 22.7867 164.974 22.7867C171.686 22.7867 178.474 28.0442 178.474 38.0993V38.2079C178.474 42.8393 177.053 46.7617 174.369 49.5597C171.915 52.1214 168.582 53.5268 164.974 53.5268C161.501 53.5268 158.741 52.3386 156.351 49.8089V57.4747C156.351 59.9406 154.349 61.9464 151.889 61.9464C149.429 61.9464 147.427 59.9406 147.427 57.4747V27.4757C147.427 25.0098 149.429 23.0039 151.889 23.0039C154.139 23.0039 156 24.6777 156.306 26.8433ZM169.557 38.0993C169.557 33.7617 166.683 30.4845 162.871 30.4845C159.034 30.4845 156.242 33.685 156.242 38.0993V38.2079C156.242 42.6221 159.028 45.8226 162.871 45.8226C166.746 45.8226 169.557 42.6221 169.557 38.2079V38.0993ZM198.08 22.7867C194.561 22.7867 191.719 24.1155 189.411 26.8433C189.105 24.6777 187.244 23.0039 184.994 23.0039C182.534 23.0039 180.533 25.0098 180.533 27.4757V57.4747C180.533 59.9406 182.534 61.9464 184.994 61.9464C187.455 61.9464 189.456 59.9406 189.456 57.4747V49.8089C191.846 52.3386 194.606 53.5268 198.08 53.5268C201.687 53.5268 205.021 52.1214 207.475 49.5597C210.158 46.7617 211.579 42.8393 211.579 38.2079V38.0993C211.579 28.0442 204.791 22.7867 198.08 22.7867ZM195.976 30.4845C199.788 30.4845 202.662 33.7617 202.662 38.0993V38.2079C202.662 42.6221 199.852 45.8226 195.976 45.8226C192.133 45.8226 189.348 42.6221 189.348 38.2079V38.0993C189.348 33.685 192.139 30.4845 195.976 30.4845ZM231.485 26.3768C232.313 24.1664 233.792 23.0038 235.761 23.0038C238.139 23.0038 240.006 24.8244 240 27.137C240 27.8077 239.783 28.7787 239.592 29.2259L229.528 53.45C226.998 59.589 224.359 61.7674 219.445 61.7674C217.711 61.7674 216.379 61.5374 214.849 60.9881C213.797 60.6048 212.026 59.6082 212.026 57.2446C212.026 54.9193 213.855 53.533 215.62 53.533C216.321 53.533 216.742 53.6544 217.08 53.7694C217.775 53.9866 218.157 54.076 218.686 54.076C220.025 54.076 220.586 53.8588 221.261 52.562L221.465 52.0765L211.675 29.3409C211.452 28.7787 211.216 27.9099 211.216 27.303C211.216 24.85 213.109 22.9974 215.62 22.9974C217.692 22.9974 219.094 24.0834 219.897 26.3193L225.793 42.2067L231.485 26.3768Z" fill="#4D6F80"/>
<path d="M97.4059 26.7662H96.4059V29.4567L98.1632 27.4194L97.4059 26.7662ZM115.66 33.8891L116.66 33.8891L116.66 33.8882L115.66 33.8891ZM121.773 24.5369L122.124 25.4733L122.125 25.473L121.773 24.5369ZM124.38 31.5447L124.081 30.5904L124.072 30.5932L124.063 30.5963L124.38 31.5447ZM135.751 35.646L135.441 36.5966L136.759 37.0269L136.751 35.6403L135.751 35.646ZM135.789 50.3133L136.762 50.0815L136.353 48.3654L135.091 49.5977L135.789 50.3133ZM141.118 26.3447L140.411 27.0521L140.411 27.0521L141.118 26.3447ZM135.859 41.2037H136.859V40.5461L136.255 40.2855L135.859 41.2037ZM156.306 26.8433L155.316 26.9831L155.628 29.1932L157.07 27.4891L156.306 26.8433ZM174.369 49.5597L173.648 48.8676L173.647 48.868L174.369 49.5597ZM156.351 49.8089L157.078 49.1221L155.351 47.2944V49.8089H156.351ZM189.411 26.8433L188.421 26.9831L188.733 29.1932L190.175 27.4891L189.411 26.8433ZM189.456 49.8089L190.183 49.1221L188.456 47.2944V49.8089H189.456ZM207.475 49.5597L206.753 48.8676L206.752 48.868L207.475 49.5597ZM231.485 26.3768L230.548 26.0257L230.544 26.0384L231.485 26.3768ZM240 27.137L239 27.1342V27.137H240ZM239.592 29.2259L238.673 28.8327L238.669 28.8422L239.592 29.2259ZM229.528 53.45L228.604 53.0663L228.603 53.0689L229.528 53.45ZM214.849 60.9881L214.507 61.9276L214.511 61.9292L214.849 60.9881ZM217.08 53.7694L216.758 54.716L216.77 54.7201L216.782 54.7238L217.08 53.7694ZM221.261 52.562L222.148 53.0241L222.167 52.9874L222.183 52.9493L221.261 52.562ZM221.465 52.0765L222.387 52.4638L222.552 52.0717L222.384 51.681L221.465 52.0765ZM211.675 29.3409L210.745 29.7097L210.751 29.7231L210.757 29.7364L211.675 29.3409ZM219.897 26.3193L218.956 26.6573L218.96 26.6672L219.897 26.3193ZM225.793 42.2067L224.855 42.5546L225.808 45.121L226.734 42.5451L225.793 42.2067ZM98.1632 27.4194C99.5808 25.7758 100.898 24.8834 102.087 24.3927C103.277 23.9013 104.403 23.7864 105.488 23.7864V21.7864C104.253 21.7864 102.842 21.9174 101.324 22.544C99.8037 23.1712 98.2395 24.2687 96.6487 26.1131L98.1632 27.4194ZM96.4059 17.0051V26.7662H98.4059V17.0051H96.4059ZM92.9443 13.5333C94.8502 13.5333 96.4059 15.0894 96.4059 17.0051H98.4059C98.4059 13.9891 95.959 11.5333 92.9443 11.5333V13.5333ZM89.4827 17.0051C89.4827 15.0894 91.0384 13.5333 92.9443 13.5333V11.5333C89.9296 11.5333 87.4827 13.9891 87.4827 17.0051H89.4827ZM89.4827 48.8375V17.0051H87.4827V48.8375H89.4827ZM92.9443 52.3092C91.0384 52.3092 89.4827 50.7532 89.4827 48.8375H87.4827C87.4827 51.8535 89.9296 54.3092 92.9443 54.3092V52.3092ZM96.4059 48.8375C96.4059 50.7532 94.8502 52.3092 92.9443 52.3092V54.3092C95.959 54.3092 98.4059 51.8535 98.4059 48.8375H96.4059ZM96.4059 36.4827V48.8375H98.4059V36.4827H96.4059ZM102.154 29.9697C100.398 29.9697 98.9065 30.5403 97.8725 31.742C96.8591 32.9198 96.4059 34.5644 96.4059 36.4827H98.4059C98.4059 34.8491 98.7941 33.7373 99.3885 33.0465C99.9623 32.3796 100.845 31.9697 102.154 31.9697V29.9697ZM107.737 36.4827C107.737 34.5527 107.317 32.9087 106.341 31.7336C105.337 30.5262 103.878 29.9697 102.154 29.9697V31.9697C103.433 31.9697 104.265 32.365 104.802 33.0118C105.367 33.6908 105.737 34.8034 105.737 36.4827H107.737ZM107.737 48.8375V36.4827H105.737V48.8375H107.737ZM111.199 52.3092C109.293 52.3092 107.737 50.7532 107.737 48.8375H105.737C105.737 51.8535 108.184 54.3092 111.199 54.3092V52.3092ZM114.66 48.8375C114.66 50.7532 113.105 52.3092 111.199 52.3092V54.3092C114.213 54.3092 116.66 51.8535 116.66 48.8375H114.66ZM114.66 33.8891V48.8375H116.66V33.8891H114.66ZM105.488 23.7864C108.446 23.7864 110.699 24.7438 112.222 26.4068C113.756 28.0812 114.657 30.5904 114.66 33.89L116.66 33.8882C116.657 30.2375 115.656 27.1952 113.697 25.056C111.727 22.9051 108.897 21.7864 105.488 21.7864V23.7864ZM122.125 25.473C124.816 24.4625 127.574 24.0037 131.111 24.0037V22.0037C127.382 22.0037 124.378 22.4904 121.422 23.6007L122.125 25.473ZM120.326 28.0632C120.326 26.9218 121.048 25.8765 122.124 25.4733L121.422 23.6005C119.566 24.296 118.326 26.0871 118.326 28.0632H120.326ZM123.086 30.7747C121.516 30.7747 120.326 29.5811 120.326 28.0632H118.326C118.326 30.7104 120.437 32.7747 123.086 32.7747V30.7747ZM124.063 30.5963C123.649 30.7346 123.394 30.7747 123.086 30.7747V32.7747C123.646 32.7747 124.117 32.687 124.697 32.4932L124.063 30.5963ZM129.925 29.7526C127.818 29.7526 125.905 30.0196 124.081 30.5904L124.679 32.4991C126.284 31.9967 127.992 31.7526 129.925 31.7526V29.7526ZM136.751 35.6403C136.744 34.3897 136.457 32.8833 135.371 31.6865C134.268 30.4704 132.504 29.7526 129.925 29.7526V31.7526C132.14 31.7526 133.282 32.3604 133.89 33.0304C134.516 33.7197 134.745 34.66 134.751 35.6516L136.751 35.6403ZM129.065 35.6047C131.865 35.6047 133.856 36.0794 135.441 36.5966L136.061 34.6953C134.319 34.1266 132.116 33.6047 129.065 33.6047V35.6047ZM118.069 44.1998C118.069 41.41 119.056 39.3164 120.833 37.8954C122.642 36.4489 125.39 35.6047 129.065 35.6047V33.6047C125.117 33.6047 121.867 34.5077 119.584 36.3335C117.269 38.1849 116.069 40.8888 116.069 44.1998H118.069ZM118.069 44.3084V44.1998H116.069V44.3084H118.069ZM127.344 52.5266C124.471 52.5266 122.155 51.662 120.57 50.2405C118.995 48.8276 118.069 46.8006 118.069 44.3084H116.069C116.069 47.3292 117.209 49.9113 119.235 51.7292C121.252 53.5385 124.073 54.5266 127.344 54.5266V52.5266ZM135.091 49.5977C133.089 51.5519 130.578 52.5266 127.344 52.5266V54.5266C131.032 54.5266 134.066 53.3931 136.488 51.0288L135.091 49.5977ZM139.996 52.3157C138.123 52.3157 137.027 51.1933 136.762 50.0815L134.816 50.5451C135.304 52.589 137.229 54.3157 139.996 54.3157V52.3157ZM143.349 49.0101C143.349 50.8622 141.895 52.3157 139.996 52.3157V54.3157C142.979 54.3157 145.349 51.9875 145.349 49.0101H143.349ZM143.349 35.8312V49.0101H145.349V35.8312H143.349ZM140.411 27.0521C142.31 28.95 143.349 31.8497 143.349 35.8312H145.349C145.349 31.5208 144.221 28.0323 141.825 25.6374L140.411 27.0521ZM131.111 24.0037C135.379 24.0037 138.446 25.0883 140.411 27.0521L141.825 25.6374C139.353 23.1678 135.689 22.0037 131.111 22.0037V24.0037ZM124.719 43.9826C124.719 45.2507 125.247 46.3328 126.211 47.0708C127.145 47.7861 128.407 48.1192 129.817 48.1192V46.1192C128.696 46.1192 127.909 45.8518 127.427 45.4827C126.974 45.1363 126.719 44.6501 126.719 43.9826H124.719ZM124.719 43.874V43.9826H126.719V43.874H124.719ZM131.003 39.2519C129.214 39.2519 127.666 39.5986 126.536 40.3731C125.356 41.1813 124.719 42.3991 124.719 43.874H126.719C126.719 43.0427 127.044 42.4494 127.666 42.0231C128.338 41.5631 129.432 41.2519 131.003 41.2519V39.2519ZM136.255 40.2855C134.697 39.6131 132.846 39.2519 131.003 39.2519V41.2519C132.601 41.2519 134.179 41.5677 135.463 42.1219L136.255 40.2855ZM136.859 42.4239V41.2037H134.859V42.4239H136.859ZM129.817 48.1192C131.769 48.1192 133.509 47.5885 134.786 46.5958C136.079 45.5905 136.859 44.1329 136.859 42.4239H134.859C134.859 43.4745 134.397 44.3645 133.558 45.017C132.703 45.682 131.422 46.1192 129.817 46.1192V48.1192ZM164.974 21.7867C161.157 21.7867 158.037 23.2487 155.543 26.1974L157.07 27.4891C159.19 24.9823 161.755 23.7867 164.974 23.7867V21.7867ZM179.474 38.0993C179.474 27.505 172.251 21.7867 164.974 21.7867V23.7867C171.121 23.7867 177.474 28.5834 177.474 38.0993H179.474ZM179.474 38.2079V38.0993H177.474V38.2079H179.474ZM175.091 50.2519C177.986 47.2328 179.474 43.0447 179.474 38.2079H177.474C177.474 42.634 176.119 46.2905 173.648 48.8676L175.091 50.2519ZM164.974 54.5268C168.849 54.5268 172.445 53.0143 175.092 50.2515L173.647 48.868C171.386 51.2285 168.315 52.5268 164.974 52.5268V54.5268ZM155.624 50.4956C158.203 53.2252 161.226 54.5268 164.974 54.5268V52.5268C161.776 52.5268 159.279 51.4519 157.078 49.1221L155.624 50.4956ZM157.351 57.4747V49.8089H155.351V57.4747H157.351ZM151.889 62.9464C154.904 62.9464 157.351 60.4907 157.351 57.4747H155.351C155.351 59.3904 153.795 60.9464 151.889 60.9464V62.9464ZM146.427 57.4747C146.427 60.4907 148.874 62.9464 151.889 62.9464V60.9464C149.983 60.9464 148.427 59.3904 148.427 57.4747H146.427ZM146.427 27.4757V57.4747H148.427V27.4757H146.427ZM151.889 22.0039C148.874 22.0039 146.427 24.4597 146.427 27.4757H148.427C148.427 25.56 149.983 24.0039 151.889 24.0039V22.0039ZM157.296 26.7034C156.922 24.0538 154.647 22.0039 151.889 22.0039V24.0039C153.631 24.0039 155.078 25.3015 155.316 26.9831L157.296 26.7034ZM162.871 31.4845C166.012 31.4845 168.557 34.1875 168.557 38.0993H170.557C170.557 33.3359 167.353 29.4845 162.871 29.4845V31.4845ZM157.242 38.0993C157.242 34.1032 159.712 31.4845 162.871 31.4845V29.4845C158.357 29.4845 155.242 33.2669 155.242 38.0993H157.242ZM157.242 38.2079V38.0993H155.242V38.2079H157.242ZM162.871 44.8226C159.706 44.8226 157.242 42.2046 157.242 38.2079H155.242C155.242 43.0396 158.35 46.8226 162.871 46.8226V44.8226ZM168.557 38.2079C168.557 42.1959 166.076 44.8226 162.871 44.8226V46.8226C167.417 46.8226 170.557 43.0483 170.557 38.2079H168.557ZM168.557 38.0993V38.2079H170.557V38.0993H168.557ZM190.175 27.4891C192.295 24.9823 194.86 23.7867 198.08 23.7867V21.7867C194.262 21.7867 191.142 23.2487 188.648 26.1974L190.175 27.4891ZM184.994 24.0039C186.737 24.0039 188.184 25.3015 188.421 26.9831L190.402 26.7034C190.027 24.0538 187.752 22.0039 184.994 22.0039V24.0039ZM181.533 27.4757C181.533 25.56 183.088 24.0039 184.994 24.0039V22.0039C181.98 22.0039 179.533 24.4597 179.533 27.4757H181.533ZM181.533 57.4747V27.4757H179.533V57.4747H181.533ZM184.994 60.9464C183.088 60.9464 181.533 59.3904 181.533 57.4747H179.533C179.533 60.4907 181.98 62.9464 184.994 62.9464V60.9464ZM188.456 57.4747C188.456 59.3904 186.9 60.9464 184.994 60.9464V62.9464C188.009 62.9464 190.456 60.4907 190.456 57.4747H188.456ZM188.456 49.8089V57.4747H190.456V49.8089H188.456ZM198.08 52.5268C194.881 52.5268 192.384 51.4519 190.183 49.1221L188.729 50.4956C191.308 53.2252 194.331 54.5268 198.08 54.5268V52.5268ZM206.752 48.868C204.491 51.2285 201.42 52.5268 198.08 52.5268V54.5268C201.954 54.5268 205.55 53.0143 208.197 50.2515L206.752 48.868ZM210.579 38.2079C210.579 42.634 209.224 46.2905 206.753 48.8676L208.196 50.2519C211.092 47.2328 212.579 43.0447 212.579 38.2079H210.579ZM210.579 38.0993V38.2079H212.579V38.0993H210.579ZM198.08 23.7867C204.226 23.7867 210.579 28.5834 210.579 38.0993H212.579C212.579 27.505 205.357 21.7867 198.08 21.7867V23.7867ZM203.662 38.0993C203.662 33.3359 200.459 29.4845 195.976 29.4845V31.4845C199.117 31.4845 201.662 34.1875 201.662 38.0993H203.662ZM203.662 38.2079V38.0993H201.662V38.2079H203.662ZM195.976 46.8226C200.522 46.8226 203.662 43.0483 203.662 38.2079H201.662C201.662 42.1959 199.181 44.8226 195.976 44.8226V46.8226ZM188.348 38.2079C188.348 43.0396 191.455 46.8226 195.976 46.8226V44.8226C192.811 44.8226 190.348 42.2046 190.348 38.2079H188.348ZM188.348 38.0993V38.2079H190.348V38.0993H188.348ZM195.976 29.4845C191.462 29.4845 188.348 33.2669 188.348 38.0993H190.348C190.348 34.1032 192.817 31.4845 195.976 31.4845V29.4845ZM235.761 22.0038C234.567 22.0038 233.484 22.361 232.576 23.076C231.679 23.7827 231.01 24.795 230.548 26.0257L232.421 26.7278C232.788 25.7482 233.272 25.074 233.814 24.6468C234.346 24.2279 234.986 24.0038 235.761 24.0038V22.0038ZM241 27.1397C241.008 24.2476 238.666 22.0038 235.761 22.0038V24.0038C237.612 24.0038 239.005 25.4013 239 27.1342L241 27.1397ZM240.512 29.6191C240.756 29.0468 241 27.942 241 27.137H239C239 27.6735 238.81 28.5107 238.673 28.8327L240.512 29.6191ZM230.451 53.8336L240.516 29.6096L238.669 28.8422L228.604 53.0663L230.451 53.8336ZM219.445 62.7674C222.063 62.7674 224.199 62.1817 226.017 60.6822C227.796 59.2139 229.166 56.953 230.452 53.831L228.603 53.0689C227.36 56.086 226.145 57.9838 224.744 59.1395C223.381 60.264 221.741 60.7674 219.445 60.7674V62.7674ZM214.511 61.9292C216.154 62.5192 217.601 62.7674 219.445 62.7674V60.7674C217.821 60.7674 216.604 60.5557 215.187 60.0469L214.511 61.9292ZM211.026 57.2446C211.026 60.2571 213.33 61.4989 214.507 61.9276L215.192 60.0485C214.265 59.7107 213.026 58.9593 213.026 57.2446H211.026ZM215.62 52.533C213.362 52.533 211.026 54.3094 211.026 57.2446H213.026C213.026 55.5291 214.348 54.533 215.62 54.533V52.533ZM217.402 52.8227C216.993 52.6836 216.461 52.533 215.62 52.533V54.533C216.182 54.533 216.491 54.6252 216.758 54.716L217.402 52.8227ZM218.686 53.076C218.31 53.076 218.043 53.0228 217.378 52.8149L216.782 54.7238C217.506 54.9504 218.004 55.076 218.686 55.076V53.076ZM220.374 52.1C220.069 52.6854 219.874 52.8551 219.739 52.9299C219.586 53.0144 219.335 53.076 218.686 53.076V55.076C219.375 55.076 220.075 55.0291 220.706 54.6808C221.354 54.3227 221.777 53.7354 222.148 53.0241L220.374 52.1ZM220.543 51.6892L220.339 52.1747L222.183 52.9493L222.387 52.4638L220.543 51.6892ZM210.757 29.7364L220.547 52.472L222.384 51.681L212.593 28.9454L210.757 29.7364ZM210.216 27.303C210.216 28.0909 210.501 29.0948 210.745 29.7097L212.604 28.972C212.402 28.4627 212.216 27.729 212.216 27.303H210.216ZM215.62 21.9974C212.578 21.9974 210.216 24.2768 210.216 27.303H212.216C212.216 25.4232 213.64 23.9974 215.62 23.9974V21.9974ZM220.838 25.9812C220.393 24.7419 219.749 23.7298 218.848 23.0299C217.935 22.3215 216.841 21.9974 215.62 21.9974V23.9974C216.472 23.9974 217.114 24.2163 217.621 24.6098C218.139 25.0119 218.598 25.6607 218.956 26.6573L220.838 25.9812ZM226.73 41.8588L220.835 25.9714L218.96 26.6672L224.855 42.5546L226.73 41.8588ZM230.544 26.0384L224.852 41.8684L226.734 42.5451L232.426 26.7151L230.544 26.0384Z" fill="#565050" mask="url(#path-1-inside-1)"/>
</g>
<path d="M63.9739 18.7786V44.9078C63.9739 55.2784 55.5339 63.6863 45.1237 63.6863H43.217L33.4805 73.3795C33.0992 73.7594 32.5717 74 31.987 74C31.4467 74 30.9574 73.8037 30.5824 73.4745L30.4172 73.3099L30.4108 73.3036L20.7569 63.6863H18.8439C8.44003 63.6863 0 55.2784 0 44.9078V18.7786C0 8.40794 8.44003 0 18.8503 0H45.1237C55.5339 0 63.9739 8.40794 63.9739 18.7786Z" fill="#FFD666"/>
<path d="M14.895 36.197C13.0392 36.197 11.9814 38.3036 13.0582 39.8248C17.2449 45.7501 24.1677 49.6133 31.99 49.6133C39.8123 49.6133 46.7289 45.7437 50.9155 39.8248C51.9923 38.3036 50.9345 36.197 49.0787 36.197H14.895Z" fill="white"/>
<path d="M25.764 27.2298H14.5658V21.6036C14.5658 18.4977 17.074 15.9774 20.1649 15.9774C23.2558 15.9774 25.764 18.4977 25.764 21.6036V27.2298Z" fill="white"/>
<path d="M49.4148 27.2298H38.2166V21.6036C38.2166 18.4977 40.7248 15.9774 43.8157 15.9774C46.9066 15.9774 49.4148 18.4977 49.4148 21.6036V27.2298Z" fill="white"/>
<defs>
<filter id="filter0_d" x="84.4827" y="12.5333" width="159.517" height="57.4131" filterUnits="userSpaceOnUse" color-interpolation-filters="sRGB">
<feFlood flood-opacity="0" result="BackgroundImageFix"/>
<feColorMatrix in="SourceAlpha" type="matrix" values="0 0 0 0 0 0 0 0 0 0 0 0 0 0 0 0 0 0 127 0"/>
<feOffset dy="4"/>
<feGaussianBlur stdDeviation="2"/>
<feColorMatrix type="matrix" values="0 0 0 0 0 0 0 0 0 0 0 0 0 0 0 0 0 0 0.25 0"/>
<feBlend mode="normal" in2="BackgroundImageFix" result="effect1_dropShadow"/>
<feBlend mode="normal" in="SourceGraphic" in2="effect1_dropShadow" result="shape"/>
</filter>
</defs>
</svg>
